{"glyphs":{"0":{"ha":791,"x_min":60,"x_max":731,"o":"m 60 509 q 395 1017 60 1017 q 731 509 731 1017 q 395 0 731 0 q 60 509 60 0 m 629 509 q 395 916 629 916 q 161 509 161 916 q 395 102 161 102 q 629 509 629 102 z "},"1":{"ha":646,"x_min":153,"x_max":533,"o":"m 292 795 l 153 795 l 153 859 q 317 1017 297 859 l 394 1017 l 394 102 l 533 102 l 533 0 l 153 0 l 153 102 l 292 102 l 292 795 z "},"2":{"ha":766,"x_min":74,"x_max":705,"o":"m 412 489 q 603 714 603 572 q 389 916 603 916 q 176 714 176 916 l 74 714 q 389 1017 74 1017 q 705 714 705 1017 q 446 391 705 503 l 316 335 q 176 102 176 277 l 705 102 l 705 0 l 74 0 l 74 102 q 282 433 74 345 l 412 489 z "},"3":{"ha":775,"x_min":66,"x_max":696,"o":"m 381 584 q 574 750 574 584 q 381 916 574 916 q 188 750 188 916 l 86 750 q 381 1017 86 1017 q 676 751 676 1017 q 584 536 676 602 q 696 292 696 467 q 381 0 696 0 q 66 294 66 0 l 168 294 q 381 102 168 102 q 595 294 595 102 q 381 485 595 485 l 328 485 l 328 584 l 381 584 z "},"4":{"ha":740,"x_min":27,"x_max":705,"o":"m 473 835 l 150 352 l 473 352 l 473 835 m 473 1017 l 575 1017 l 575 352 l 705 352 l 705 250 l 575 250 l 575 0 l 473 0 l 473 250 l 27 250 l 27 352 l 473 1017 z "},"5":{"ha":777,"x_min":84,"x_max":705,"o":"m 705 339 q 408 0 705 0 q 84 269 118 0 l 186 269 q 408 102 220 102 q 603 339 603 102 q 415 576 603 576 q 220 490 278 576 l 121 490 l 169 1017 l 657 1017 l 657 916 l 260 916 l 235 644 q 415 678 308 678 q 705 339 705 678 z "},"6":{"ha":734,"x_min":58,"x_max":688,"o":"m 165 389 q 373 102 194 102 q 587 322 587 102 q 373 543 587 543 q 165 389 195 543 m 373 0 q 58 509 58 0 q 407 1017 58 1017 q 688 779 688 1017 l 587 779 q 407 916 587 916 q 162 586 184 916 q 373 644 239 644 q 688 322 688 644 q 373 0 688 0 z "},"7":{"ha":748,"x_min":67,"x_max":698,"o":"m 698 916 l 336 0 l 227 0 l 589 916 l 67 916 l 67 1017 l 698 1017 l 698 916 z "},"8":{"ha":731,"x_min":50,"x_max":681,"o":"m 366 916 q 172 746 172 916 q 366 576 172 576 q 559 746 559 576 q 366 916 559 916 m 366 475 q 152 288 152 475 q 366 102 152 102 q 579 288 579 102 q 366 475 579 475 m 161 529 q 71 746 71 595 q 366 1017 71 1017 q 661 746 661 1017 q 570 529 661 595 q 681 288 681 459 q 366 0 681 0 q 50 288 50 0 q 161 529 50 459 z "},"9":{"ha":734,"x_min":45,"x_max":676,"o":"m 569 629 q 361 916 540 916 q 147 695 147 916 q 361 475 147 475 q 569 629 539 475 m 361 1017 q 676 509 676 1017 q 327 0 676 0 q 45 239 45 0 l 147 239 q 327 102 147 102 q 572 431 549 102 q 361 373 495 373 q 45 695 45 373 q 361 1017 45 1017 z "}," ":{"ha":386,"x_min":0,"x_max":0,"o":""},"!":{"ha":591,"x_min":305,"x_max":422,"o":"m 415 1013 l 415 543 l 388 233 l 340 233 l 313 543 l 313 1013 l 415 1013 m 422 144 l 422 0 l 305 0 l 305 144 l 422 144 z "},"\"":{"ha":493,"x_min":72,"x_max":423,"o":"m 72 985 l 201 985 l 201 831 l 163 644 l 109 644 l 72 831 l 72 985 m 294 985 l 423 985 l 423 831 l 386 644 l 332 644 l 294 831 l 294 985 z "},"#":{"ha":772,"x_min":19,"x_max":752,"o":"m 673 968 l 623 696 l 752 696 l 752 602 l 605 602 l 562 359 l 708 359 l 708 265 l 545 265 l 491 -27 l 386 -27 l 438 265 l 267 265 l 212 -27 l 106 -27 l 159 265 l 19 265 l 19 359 l 177 359 l 220 602 l 71 602 l 71 696 l 239 696 l 288 968 l 394 968 l 344 696 l 517 696 l 566 968 l 673 968 m 500 602 l 328 602 l 283 359 l 456 359 l 500 602 z "},"$":{"ha":772,"x_min":47,"x_max":722,"o":"m 340 1069 l 422 1069 l 422 994 q 662 852 597 982 q 691 734 688 800 l 691 721 l 582 721 q 501 875 581 828 q 440 896 473 890 q 422 897 431 897 l 422 551 q 604 485 561 509 q 722 271 722 418 q 627 41 722 126 q 594 17 612 28 q 422 -32 526 -23 l 422 -175 l 340 -175 l 340 -32 q 66 144 126 -18 q 47 264 47 199 q 48 289 47 277 l 158 289 q 187 153 168 186 q 193 143 190 149 q 340 64 241 77 l 340 441 q 165 514 211 481 q 66 717 66 585 q 260 978 66 920 q 340 994 297 989 l 340 1069 m 340 562 l 340 896 q 183 772 207 878 q 179 730 179 753 q 340 562 179 606 m 422 429 l 422 64 q 549 115 507 74 q 608 254 608 171 q 543 380 608 339 q 422 429 503 406 z "},"%":{"ha":1234,"x_min":40,"x_max":1193,"o":"m 276 951 q 464 860 393 951 l 489 821 q 513 711 513 770 q 426 530 513 602 q 277 476 361 476 q 93 564 165 476 q 40 714 40 631 q 127 899 40 827 q 276 951 193 951 m 276 854 q 159 790 201 854 l 143 758 q 136 714 136 736 q 198 597 136 640 q 277 574 235 574 q 394 636 353 574 q 418 713 418 671 q 351 833 418 791 q 276 854 318 854 m 846 985 l 937 985 l 389 -27 l 297 -27 l 846 985 m 956 447 q 1144 355 1074 447 q 1193 208 1193 292 q 1105 28 1193 98 q 957 -26 1040 -26 q 772 61 844 -26 q 719 211 719 127 q 808 395 719 323 q 956 447 873 447 m 956 350 q 839 288 880 350 q 815 211 815 253 q 880 93 815 135 q 957 71 915 71 q 1074 134 1031 71 q 1097 208 1097 168 q 1030 329 1097 288 l 998 343 q 956 350 977 350 z "},"&":{"ha":926,"x_min":72,"x_max":884,"o":"m 684 464 l 795 464 q 715 210 795 334 l 884 0 l 733 0 l 647 109 q 540 18 579 41 q 357 -32 462 -32 q 118 82 195 -32 q 72 244 72 150 q 144 431 72 357 q 297 541 194 481 q 187 729 199 663 q 184 766 184 747 q 275 939 184 873 q 422 985 338 985 q 611 893 547 985 l 631 854 q 647 791 644 825 q 648 766 648 779 q 572 603 648 671 q 456 525 532 567 l 642 298 q 684 458 684 374 l 684 464 m 395 599 q 529 721 508 669 q 538 770 538 742 q 476 873 538 842 q 418 888 450 888 q 307 818 334 888 q 298 768 298 796 q 333 673 298 722 l 395 599 m 581 191 l 358 468 q 199 315 227 385 q 189 254 189 288 q 264 111 189 164 q 370 77 312 77 q 558 167 464 77 q 581 191 569 178 z "},"'":{"ha":265,"x_min":66,"x_max":197,"o":"m 66 985 l 197 985 l 197 831 l 159 644 l 104 644 l 66 831 l 66 985 z "},"(":{"ha":777,"x_min":170,"x_max":472,"o":"m 396 1013 l 472 1013 q 283 416 300 734 q 282 359 282 387 q 452 -259 282 36 q 472 -294 461 -277 l 396 -294 q 188 178 239 -89 q 170 359 170 272 q 298 857 170 608 q 396 1013 342 942 z "},")":{"ha":777,"x_min":305,"x_max":608,"o":"m 382 -294 l 305 -294 q 494 301 477 -16 q 496 358 496 330 q 326 978 496 682 q 305 1013 316 996 l 382 1013 q 590 541 538 807 q 608 358 608 446 q 479 -138 608 110 q 382 -294 436 -223 z "},"*":{"ha":896,"x_min":305,"x_max":726,"o":"m 472 1013 l 559 1013 l 553 857 l 700 909 l 726 828 l 576 786 l 673 663 l 602 612 l 516 742 l 429 612 l 359 663 l 455 786 l 305 828 l 332 909 l 479 857 l 472 1013 z "},"+":{"ha":811,"x_min":69,"x_max":741,"o":"m 741 371 l 741 273 l 454 273 l 454 -14 l 357 -14 l 357 273 l 69 273 l 69 371 l 357 371 l 357 659 l 454 659 l 454 371 l 741 371 z "},",":{"ha":386,"x_min":121,"x_max":267,"o":"m 121 144 l 267 144 l 267 -22 q 121 -204 267 -204 l 121 -151 q 195 -105 180 -149 q 204 -24 204 -79 l 204 0 l 121 0 l 121 144 z "},"-":{"ha":462,"x_min":64,"x_max":394,"o":"m 394 433 l 394 334 l 64 334 l 64 433 l 394 433 z "},".":{"ha":386,"x_min":121,"x_max":265,"o":"m 265 144 l 265 0 l 121 0 l 121 144 l 265 144 z "},"/":{"ha":386,"x_min":-11,"x_max":395,"o":"m 318 1013 l 395 1013 l 66 -27 l -11 -27 l 318 1013 z "},":":{"ha":386,"x_min":153,"x_max":297,"o":"m 297 144 l 297 0 l 153 0 l 153 144 l 297 144 m 297 728 l 297 583 l 153 583 l 153 728 l 297 728 z "},";":{"ha":386,"x_min":153,"x_max":298,"o":"m 298 728 l 298 583 l 154 583 l 154 728 l 298 728 m 153 144 l 298 144 l 298 -22 q 153 -204 298 -204 l 153 -151 q 227 -105 212 -149 q 236 -24 236 -79 l 236 0 l 153 0 l 153 144 z "},"<":{"ha":811,"x_min":62,"x_max":741,"o":"m 62 275 l 62 371 l 741 659 l 741 549 l 195 325 l 741 97 l 741 -12 l 62 275 z "},"=":{"ha":811,"x_min":69,"x_max":741,"o":"m 741 490 l 741 393 l 69 393 l 69 490 l 741 490 m 741 252 l 741 154 l 69 154 l 69 252 l 741 252 z "},">":{"ha":811,"x_min":69,"x_max":748,"o":"m 748 371 l 748 275 l 69 -12 l 69 97 l 616 321 l 69 549 l 69 659 l 748 371 z "},"?":{"ha":1075,"x_min":305,"x_max":905,"o":"m 656 277 l 532 277 l 532 353 q 570 473 532 422 q 643 550 594 504 q 676 579 652 558 q 780 762 779 671 q 695 901 780 860 l 652 916 q 602 921 629 921 q 447 840 488 921 q 423 704 423 793 l 305 704 q 368 931 305 850 q 555 1026 431 1012 q 610 1029 582 1029 q 862 914 785 1029 l 884 872 q 905 762 905 822 q 834 583 905 665 q 766 514 808 551 q 665 396 679 433 q 656 342 656 375 l 656 277 m 656 144 l 656 0 l 532 0 l 532 144 l 656 144 z "},"@":{"ha":1409,"x_min":47,"x_max":1320,"o":"m 923 696 l 1038 696 l 913 307 q 897 237 897 258 q 937 182 897 200 q 966 176 951 176 q 1128 277 1055 176 q 1200 496 1200 375 q 1065 786 1200 663 q 732 922 927 914 l 711 922 q 349 781 507 922 l 302 733 q 165 379 165 576 q 311 49 165 183 q 686 -90 460 -90 q 954 -45 795 -90 l 993 -138 q 679 -197 837 -197 q 247 -48 429 -197 q 51 294 77 90 q 47 358 47 326 q 179 753 47 572 q 267 850 218 807 q 626 1021 416 986 q 729 1029 677 1029 q 1130 889 960 1029 q 1316 571 1291 758 q 1320 513 1320 542 q 1201 203 1320 345 q 943 79 1095 79 q 790 186 809 79 q 593 86 699 86 q 414 182 479 86 q 366 340 366 250 q 476 608 366 492 q 723 725 583 724 q 892 604 840 725 l 923 696 m 715 636 q 554 538 623 636 q 491 339 491 450 q 557 199 491 245 q 629 175 590 175 q 770 265 709 175 q 838 449 817 332 q 846 503 844 479 l 846 512 q 789 616 846 581 q 715 636 755 636 z "},"ក":{"ha":882,"x_min":102,"x_max":780,"o":"m 102 882 l 102 1017 l 780 1017 l 780 882 l 102 882 m 644 0 l 644 475 q 441 610 644 610 q 237 475 237 610 l 237 0 l 102 0 l 102 475 q 441 746 102 746 q 780 475 780 746 l 780 0 l 644 0 z "},"ខ":{"ha":882,"x_min":102,"x_max":780,"o":"m 780 746 q 305 363 780 479 l 237 347 l 237 271 q 441 136 237 136 q 644 271 644 136 l 644 407 l 780 407 l 780 271 q 441 0 780 0 q 102 271 102 0 l 102 453 l 271 494 q 644 746 644 585 q 441 882 644 882 q 237 746 237 882 l 305 746 l 305 610 l 203 610 q 102 712 102 610 l 102 746 q 441 1017 102 1017 q 780 746 780 1017 z "},"គ":{"ha":882,"x_min":102,"x_max":780,"o":"m 102 882 l 102 1017 l 780 1017 l 780 882 l 102 882 m 237 20 l 237 0 l 102 0 l 102 475 q 441 746 102 746 q 780 475 780 746 l 780 0 l 644 0 l 644 475 q 441 610 644 610 q 237 475 237 610 l 237 240 l 368 407 l 475 323 l 237 20 z "},"ឃ":{"ha":1373,"x_min":68,"x_max":1272,"o":"m 780 271 q 958 136 780 136 q 1136 271 1136 136 l 1136 1017 l 1272 1017 l 1272 271 q 958 0 1272 0 q 709 80 787 0 q 441 0 625 0 q 102 271 102 0 l 102 319 q 305 746 305 529 q 277 852 305 816 q 245 872 261 872 q 219 859 232 872 q 208 828 208 848 q 237 743 208 796 l 277 676 l 172 604 l 127 661 q 68 841 68 721 q 129 962 68 902 q 245 1017 186 1017 q 376 947 311 1017 q 441 746 441 878 q 237 266 441 454 q 441 136 241 136 q 644 271 644 136 l 644 1017 l 780 1017 l 780 271 z "},"ង":{"ha":882,"x_min":68,"x_max":780,"o":"m 572 747 q 543 746 557 746 l 339 746 q 102 949 102 746 l 102 1085 l 237 1085 l 237 949 q 339 882 237 882 l 543 882 q 661 1017 543 1017 q 780 882 780 1017 q 718 779 780 812 q 780 610 780 708 l 780 0 l 644 0 l 441 210 l 237 0 l 102 0 l 102 543 l 68 543 l 68 678 l 237 678 l 237 195 l 441 404 l 644 195 l 644 610 q 572 747 644 690 z "},"ច":{"ha":882,"x_min":68,"x_max":780,"o":"m 627 543 q 678 593 678 543 q 627 644 678 644 q 576 593 576 644 q 627 543 576 543 m 780 271 q 441 0 780 0 q 102 271 102 0 l 102 515 q 158 665 102 595 q 68 831 68 707 l 68 1017 l 780 1017 l 780 882 l 203 882 l 203 831 q 271 766 203 780 l 339 753 l 339 671 q 237 515 237 610 l 237 271 q 441 136 237 136 q 644 271 644 136 l 644 441 q 627 441 636 441 q 475 593 475 441 q 627 746 475 746 q 780 593 780 746 l 780 271 z "},"ឆ":{"ha":1051,"x_min":34,"x_max":949,"o":"m 271 312 q 203 275 222 302 q 174 189 174 221 q 185 159 174 170 q 211 145 198 145 q 243 165 227 145 q 271 271 271 201 l 271 312 m 797 543 q 848 593 848 543 q 797 644 848 644 q 746 593 746 644 q 797 543 746 543 m 949 1017 l 949 882 l 295 882 q 407 271 407 714 q 342 70 407 140 q 211 0 277 0 q 95 56 152 0 q 34 176 34 115 q 93 357 34 296 q 266 441 141 418 q 41 882 237 882 l 34 882 l 34 1017 l 949 1017 m 949 0 l 814 0 q 441 319 814 319 l 441 454 q 814 348 687 454 l 814 441 q 797 441 806 441 q 644 593 644 441 q 797 746 644 746 q 949 593 949 746 l 949 0 z "},"ជ":{"ha":882,"x_min":68,"x_max":780,"o":"m 237 195 l 441 404 l 644 195 l 644 746 l 780 746 l 780 0 l 644 0 l 441 210 l 237 0 l 102 0 l 102 515 q 158 665 102 595 q 68 831 68 707 l 68 1017 l 217 1017 q 325 1000 254 1017 q 509 983 395 983 q 644 1051 644 983 l 644 1085 l 780 1085 l 780 1051 q 509 848 780 848 q 359 858 429 848 q 244 882 290 867 l 203 882 l 203 831 q 271 766 203 780 l 339 753 l 339 671 q 237 515 237 610 l 237 195 z "},"ឈ":{"ha":1814,"x_min":102,"x_max":1712,"o":"m 780 271 q 945 136 780 136 q 1111 271 1111 136 l 1111 1017 l 1246 1017 l 1246 271 q 1411 136 1246 136 q 1577 271 1577 136 l 1577 1017 l 1712 1017 l 1712 271 q 1411 0 1712 0 q 1179 75 1253 0 q 945 0 1103 0 q 644 271 644 0 l 644 746 q 441 882 644 882 q 237 746 237 882 q 434 699 237 699 l 434 563 q 237 271 237 563 q 266 165 237 201 q 298 145 281 145 q 323 159 311 145 q 335 189 335 170 q 306 275 335 221 l 266 341 l 370 414 l 416 357 q 475 176 475 296 q 414 56 475 115 q 298 0 357 0 q 166 70 231 0 q 102 271 102 140 q 195 604 102 497 q 102 746 102 649 q 441 1017 102 1017 q 780 746 780 1017 l 780 271 z "},"ញ":{"ha":1322,"x_min":102,"x_max":1221,"o":"m 102 -136 l 271 -136 q 628 -237 507 -136 q 916 -339 749 -339 q 1085 -271 1085 -339 q 1017 -203 1085 -203 l 882 -203 l 882 -68 l 1017 -68 q 1221 -271 1221 -68 q 916 -475 1221 -475 q 532 -347 686 -475 q 271 -271 439 -271 l 102 -271 l 102 -136 m 780 882 l 780 0 l 644 0 l 644 866 l 503 729 l 379 729 l 237 866 l 237 746 q 407 665 237 671 l 407 529 l 399 529 q 237 271 237 529 q 266 165 237 201 q 298 145 281 145 q 323 159 311 145 q 335 189 335 170 q 306 275 335 221 l 266 341 l 370 414 l 416 357 q 475 176 475 296 q 414 56 475 115 q 298 0 357 0 q 166 70 231 0 q 102 271 102 140 q 195 576 102 497 q 102 746 102 622 l 102 1017 l 276 1017 l 441 858 l 606 1017 l 983 1017 q 1221 746 1221 1017 l 1221 0 l 1085 0 l 1085 746 q 983 882 1085 882 l 780 882 z "},"ដ":{"ha":882,"x_min":102,"x_max":780,"o":"m 102 1017 l 237 1017 l 237 916 l 543 916 q 644 1017 644 916 l 644 1085 l 780 1085 l 780 1017 q 543 780 780 780 l 102 780 l 102 1017 m 237 678 l 237 195 l 441 404 l 644 195 l 644 678 l 780 678 l 780 0 l 644 0 l 441 210 l 237 0 l 102 0 l 102 678 l 237 678 z "},"ឋ":{"ha":882,"x_min":68,"x_max":814,"o":"m 780 271 q 441 0 780 0 q 102 271 102 0 l 102 882 l 68 882 l 68 1017 l 237 1017 l 237 271 q 441 136 237 136 q 644 271 644 136 q 414 882 644 882 l 407 882 l 407 1017 l 678 1017 l 678 1119 l 814 1119 l 814 882 l 668 882 q 780 271 780 714 z "},"ឌ":{"ha":882,"x_min":102,"x_max":780,"o":"m 237 746 l 305 746 l 305 610 l 203 610 q 102 712 102 610 l 102 1017 l 276 1017 l 441 858 l 606 1017 l 780 1017 l 780 746 q 305 363 780 479 l 237 347 l 237 271 q 305 136 237 136 q 644 346 590 231 l 644 407 l 780 407 l 780 0 l 644 0 l 644 153 q 305 0 522 52 q 102 271 102 0 l 102 453 l 271 494 q 644 746 644 585 l 644 866 l 503 729 l 379 729 l 237 866 l 237 746 z "},"ឍ":{"ha":1322,"x_min":102,"x_max":1221,"o":"m 644 866 l 503 729 l 379 729 l 237 866 l 237 746 q 407 665 237 671 l 407 529 l 399 529 q 237 271 237 529 q 266 165 237 201 q 298 145 281 145 q 323 159 311 145 q 335 189 335 170 q 306 275 335 221 l 266 341 l 370 414 l 416 357 q 475 176 475 296 q 414 56 475 115 q 298 0 357 0 q 166 70 231 0 q 102 271 102 140 q 195 576 102 497 q 102 746 102 622 l 102 1017 l 276 1017 l 441 858 l 606 1017 l 780 1017 l 780 339 l 848 339 q 1085 248 974 339 l 1085 1017 l 1221 1017 l 1221 0 l 1085 0 q 848 203 1017 203 l 780 203 l 780 0 l 644 0 q 576 183 576 77 q 644 320 576 286 l 644 866 z "},"ណ":{"ha":1831,"x_min":102,"x_max":1729,"o":"m 1119 746 q 1424 1017 1119 1017 q 1729 746 1729 1017 l 1729 0 l 1594 0 l 1594 746 q 1424 882 1594 882 q 1255 746 1255 882 l 1255 0 l 1119 0 l 949 175 l 780 0 l 644 0 l 644 746 q 441 882 644 882 q 237 746 237 882 q 434 699 237 699 l 434 563 q 237 271 237 563 q 266 165 237 201 q 298 145 281 145 q 323 159 311 145 q 335 189 335 170 q 306 275 335 221 l 266 341 l 370 414 l 416 357 q 475 176 475 296 q 414 56 475 115 q 298 0 357 0 q 166 70 231 0 q 102 271 102 140 q 195 604 102 497 q 102 746 102 649 q 441 1017 102 1017 q 780 746 780 1017 l 780 195 l 949 370 l 1119 195 l 1119 746 z "},"ត":{"ha":882,"x_min":102,"x_max":780,"o":"m 102 882 l 102 1017 l 780 1017 l 780 882 l 102 882 m 102 475 q 441 746 102 746 q 780 475 780 746 l 780 0 l 644 0 l 644 475 q 441 610 644 610 q 237 475 237 610 l 237 271 q 266 165 237 201 q 298 145 281 145 q 323 159 311 145 q 335 189 335 170 q 306 275 335 221 l 266 341 l 370 414 l 416 357 q 475 176 475 296 q 414 56 475 115 q 298 0 357 0 q 166 70 231 0 q 102 271 102 140 l 102 475 z "},"ថ":{"ha":882,"x_min":68,"x_max":780,"o":"m 627 543 q 678 593 678 543 q 627 644 678 644 q 576 593 576 644 q 627 543 576 543 m 644 441 q 627 441 636 441 q 475 593 475 441 q 627 746 475 746 q 780 593 780 746 l 780 271 q 441 0 780 0 q 102 271 102 0 l 102 515 q 158 665 102 595 q 68 831 68 707 l 68 1017 l 217 1017 q 325 1000 254 1017 q 509 983 395 983 q 644 1051 644 983 l 644 1085 l 780 1085 l 780 1051 q 509 848 780 848 q 359 858 429 848 q 244 882 290 867 l 203 882 l 203 831 q 271 764 203 780 l 339 746 l 339 671 q 237 515 237 610 l 237 271 q 441 136 237 136 q 644 271 644 136 l 644 441 z "},"ទ":{"ha":882,"x_min":102,"x_max":780,"o":"m 712 351 l 712 271 q 424 0 712 0 q 136 271 136 0 l 136 407 l 271 407 l 271 271 q 424 136 271 136 q 576 271 576 136 l 576 363 q 102 746 102 479 q 441 1017 102 1017 q 780 780 780 1017 l 780 746 q 678 644 780 644 l 576 644 l 576 780 l 644 780 q 441 882 644 882 q 237 746 237 882 q 610 494 237 585 q 707 564 642 564 l 712 564 q 780 487 780 561 l 780 435 q 712 351 780 374 z "},"ធ":{"ha":882,"x_min":68,"x_max":780,"o":"m 627 543 q 678 593 678 543 q 627 644 678 644 q 576 593 576 644 q 627 543 576 543 m 237 195 l 441 404 l 644 195 l 644 441 q 627 441 636 441 q 475 593 475 441 q 627 746 475 746 q 780 593 780 746 l 780 0 l 644 0 l 441 210 l 237 0 l 102 0 l 102 515 q 158 665 102 595 q 68 831 68 707 l 68 1017 l 780 1017 l 780 882 l 203 882 l 203 831 q 271 766 203 780 l 339 753 l 339 671 q 237 515 237 610 l 237 195 z "},"ន":{"ha":882,"x_min":102,"x_max":780,"o":"m 644 427 l 585 437 q 102 746 102 511 q 441 1017 102 1017 q 780 780 780 1017 l 780 746 q 678 644 780 644 l 576 644 l 576 780 l 644 780 q 441 882 644 882 q 237 746 237 882 q 607 570 237 627 l 780 543 l 780 0 l 644 0 l 441 196 l 237 0 l 102 0 l 102 407 l 237 407 l 237 188 l 441 384 l 644 188 l 644 427 z "},"ប":{"ha":882,"x_min":68,"x_max":780,"o":"m 237 271 q 441 136 237 136 q 644 271 644 136 l 644 1017 l 780 1017 l 780 271 q 441 0 780 0 q 102 271 102 0 l 102 515 q 158 665 102 595 q 68 831 68 707 q 244 1017 68 1017 q 339 1004 292 1017 l 339 868 q 244 882 305 882 q 203 831 203 882 q 271 766 203 780 l 339 753 l 339 671 q 237 515 237 610 l 237 271 z "},"ផ":{"ha":882,"x_min":68,"x_max":780,"o":"m 627 543 q 678 593 678 543 q 627 644 678 644 q 576 593 576 644 q 627 543 576 543 m 644 441 q 627 441 636 441 q 475 593 475 441 q 627 746 475 746 q 780 593 780 746 l 780 0 l 644 0 l 441 210 l 237 0 l 102 0 l 102 515 q 158 665 102 595 q 68 831 68 707 l 68 1017 l 217 1017 q 325 1000 254 1017 q 509 983 395 983 q 644 1051 644 983 l 644 1085 l 780 1085 l 780 1051 q 509 848 780 848 q 359 858 429 848 q 244 882 290 867 l 203 882 l 203 831 q 271 766 203 780 l 339 753 l 339 671 q 237 515 237 610 l 237 195 l 441 404 l 644 195 l 644 441 z "},"ព":{"ha":882,"x_min":102,"x_max":780,"o":"m 780 0 l 644 0 l 644 866 l 503 729 l 379 729 l 237 866 l 237 746 q 407 665 237 671 l 407 529 l 399 529 q 237 271 237 529 q 266 165 237 201 q 298 145 281 145 q 323 159 311 145 q 335 189 335 170 q 306 275 335 221 l 266 341 l 370 414 l 416 357 q 475 176 475 296 q 414 56 475 115 q 298 0 357 0 q 166 70 231 0 q 102 271 102 140 q 195 576 102 497 q 102 746 102 622 l 102 1017 l 276 1017 l 441 858 l 606 1017 l 780 1017 l 780 0 z "},"ភ":{"ha":882,"x_min":68,"x_max":780,"o":"m 102 882 l 102 1017 l 780 1017 l 780 882 l 102 882 m 102 475 q 441 746 102 746 q 780 475 780 746 l 780 0 l 644 0 l 644 475 q 441 610 644 610 q 237 475 237 610 l 237 472 l 390 322 q 448 205 448 265 q 380 71 448 140 q 245 0 311 0 q 129 56 186 0 q 68 176 68 115 q 127 296 68 235 l 151 320 l 247 225 l 223 201 q 212 177 212 189 q 224 153 212 165 q 245 143 233 143 q 283 165 262 143 q 305 204 305 187 q 295 225 305 216 l 102 415 l 102 475 z "},"ម":{"ha":882,"x_min":68,"x_max":780,"o":"m 237 271 q 441 136 237 136 q 644 271 644 136 l 644 475 l 305 475 l 305 610 l 644 610 l 644 1017 l 780 1017 l 780 271 q 441 0 780 0 q 102 271 102 0 l 102 515 q 158 665 102 595 q 68 831 68 707 q 244 1017 68 1017 q 339 1004 292 1017 l 339 868 q 244 882 305 882 q 203 831 203 882 q 271 766 203 780 l 339 753 l 339 671 q 237 515 237 610 l 237 271 z "},"យ":{"ha":1373,"x_min":102,"x_max":1272,"o":"m 237 271 q 441 136 237 136 q 644 271 644 136 l 644 1017 l 780 1017 l 780 271 q 958 136 780 136 q 1136 271 1136 136 l 1136 1017 l 1272 1017 l 1272 271 q 958 0 1272 0 q 709 80 787 0 q 441 0 625 0 q 102 271 102 0 l 102 746 q 166 947 102 878 q 298 1017 231 1017 q 414 962 357 1017 q 475 841 475 902 q 416 661 475 721 l 370 604 l 266 676 l 306 743 q 335 828 335 796 q 323 859 335 848 q 298 872 311 872 q 266 852 281 872 q 237 746 237 816 l 237 271 z "},"រ":{"ha":509,"x_min":34,"x_max":441,"o":"m 407 271 q 342 70 407 140 q 211 0 277 0 q 95 56 152 0 q 34 176 34 115 q 93 357 34 296 l 138 414 l 243 341 l 203 275 q 174 189 174 221 q 185 159 174 170 q 211 145 198 145 q 243 165 227 145 q 271 271 271 201 q 41 882 271 882 l 34 882 l 34 1017 l 441 1017 l 441 882 l 295 882 q 407 271 407 714 z "},"ល":{"ha":1373,"x_min":102,"x_max":1272,"o":"m 780 271 q 958 136 780 136 q 1136 271 1136 136 l 1136 1017 l 1272 1017 l 1272 271 q 958 0 1272 0 q 644 271 644 0 l 644 746 q 441 882 644 882 q 237 746 237 882 q 434 699 237 699 l 434 563 q 237 271 237 563 q 266 165 237 201 q 298 145 281 145 q 323 159 311 145 q 335 189 335 170 q 306 275 335 221 l 266 341 l 370 414 l 416 357 q 475 176 475 296 q 414 56 475 115 q 298 0 357 0 q 166 70 231 0 q 102 271 102 140 q 195 604 102 497 q 102 746 102 649 q 441 1017 102 1017 q 780 746 780 1017 l 780 271 z "},"វ":{"ha":509,"x_min":34,"x_max":441,"o":"m 305 1017 l 305 1119 l 441 1119 l 441 882 l 295 882 q 407 271 407 714 q 342 70 407 140 q 211 0 277 0 q 95 56 152 0 q 34 176 34 115 q 93 357 34 296 l 138 414 l 243 341 l 203 275 q 174 189 174 221 q 185 159 174 170 q 211 145 198 145 q 243 165 227 145 q 271 271 271 201 q 41 882 271 882 l 34 882 l 34 1017 l 305 1017 z "},"ឝ":{"ha":882,"x_min":102,"x_max":882,"o":"m 102 882 l 102 1017 l 780 1017 l 780 882 l 102 882 m 780 441 l 882 441 l 882 305 l 780 305 l 780 0 l 644 0 l 644 305 l 509 305 l 509 441 l 644 441 l 644 475 q 441 610 644 610 q 237 475 237 610 l 237 240 l 368 407 l 475 323 l 237 20 l 237 0 l 102 0 l 102 475 q 441 746 102 746 q 780 475 780 746 l 780 441 z "},"ឞ":{"ha":882,"x_min":68,"x_max":882,"o":"m 237 271 q 441 136 237 136 q 644 271 644 136 l 644 475 l 475 475 l 475 610 l 644 610 l 644 1017 l 780 1017 l 780 610 l 882 610 l 882 475 l 780 475 l 780 271 q 441 0 780 0 q 102 271 102 0 l 102 515 q 158 665 102 595 q 68 831 68 707 q 244 1017 68 1017 q 339 1004 292 1017 l 339 868 q 244 882 305 882 q 203 831 203 882 q 271 766 203 780 l 339 753 l 339 671 q 237 515 237 610 l 237 271 z "},"ស":{"ha":1373,"x_min":102,"x_max":1272,"o":"m 136 882 l 136 1017 l 712 1017 l 712 882 l 136 882 m 237 475 l 237 271 q 266 165 237 201 q 298 145 281 145 q 323 159 311 145 q 335 189 335 170 q 306 275 335 221 l 266 341 l 370 414 l 416 357 q 475 176 475 296 q 414 56 475 115 q 298 0 357 0 q 166 70 231 0 q 102 271 102 140 l 102 475 q 441 746 102 746 q 780 475 780 746 l 780 271 q 958 136 780 136 q 1136 271 1136 136 l 1136 1017 l 1272 1017 l 1272 271 q 958 0 1272 0 q 644 271 644 0 l 644 475 q 441 610 644 610 q 237 475 237 610 z "},"ហ":{"ha":1356,"x_min":68,"x_max":1255,"o":"m 237 271 q 441 136 237 136 q 644 271 644 136 l 644 746 q 949 1017 644 1017 q 1255 746 1255 1017 l 1255 0 l 1119 0 l 1119 746 q 949 882 1119 882 q 780 746 780 882 l 780 271 q 441 0 780 0 q 102 271 102 0 l 102 515 q 158 665 102 595 q 68 831 68 707 q 244 1017 68 1017 q 339 1004 292 1017 l 339 868 q 244 882 305 882 q 203 831 203 882 q 271 766 203 780 l 339 753 l 339 671 q 237 515 237 610 l 237 271 z "},"ឡ":{"ha":1221,"x_min":102,"x_max":1119,"o":"m 644 -203 l 610 -203 l 610 -68 l 780 -68 l 780 -280 l 882 -175 l 983 -280 l 983 1017 l 1119 1017 l 1119 -475 l 983 -475 l 882 -370 l 780 -475 l 644 -475 l 644 -203 m 712 351 l 712 271 q 424 0 712 0 q 136 271 136 0 l 136 407 l 271 407 l 271 271 q 424 136 271 136 q 576 271 576 136 l 576 363 q 102 746 102 479 q 441 1017 102 1017 q 780 780 780 1017 l 780 746 q 678 644 780 644 l 576 644 l 576 780 l 644 780 q 441 882 644 882 q 237 746 237 882 q 610 494 237 585 q 707 564 642 564 l 712 564 q 780 487 780 561 l 780 435 q 712 351 780 374 z "},"អ":{"ha":1051,"x_min":34,"x_max":949,"o":"m 814 475 l 441 475 l 441 610 l 814 610 l 814 1017 l 949 1017 l 949 0 l 814 0 l 814 475 m 407 271 q 342 70 407 140 q 211 0 277 0 q 95 56 152 0 q 34 176 34 115 q 93 357 34 296 l 138 414 l 243 341 l 203 275 q 174 189 174 221 q 185 159 174 170 q 211 145 198 145 q 243 165 227 145 q 271 271 271 201 q 41 882 271 882 l 34 882 l 34 1017 l 441 1017 l 441 882 l 295 882 q 407 271 407 714 z "},"ឣ":{"ha":1051,"x_min":34,"x_max":949,"o":"m 814 475 l 441 475 l 441 610 l 814 610 l 814 1017 l 949 1017 l 949 0 l 814 0 l 814 475 m 407 271 q 342 70 407 140 q 211 0 277 0 q 95 56 152 0 q 34 176 34 115 q 93 357 34 296 l 138 414 l 243 341 l 203 275 q 174 189 174 221 q 185 159 174 170 q 211 145 198 145 q 243 165 227 145 q 271 271 271 201 q 41 882 271 882 l 34 882 l 34 1017 l 441 1017 l 441 882 l 295 882 q 407 271 407 714 z "},"ឤ":{"ha":1492,"x_min":34,"x_max":1390,"o":"m 342 70 q 310 35 342 70 q 211 0 277 0 q 95 56 152 0 q 34 176 34 115 q 93 357 34 296 l 138 414 l 243 341 l 203 275 q 174 189 174 221 q 185 159 174 170 q 211 145 198 145 q 243 165 227 145 q 271 271 271 201 q 41 882 271 882 l 34 882 l 34 1017 l 441 1017 l 441 882 l 295 882 q 407 271 407 714 q 342 70 407 140 m 949 0 l 814 0 l 814 475 l 441 475 l 441 610 l 814 610 l 814 746 q 1102 1017 814 1017 q 1390 746 1390 1017 l 1390 0 l 1255 0 l 1255 746 q 1102 882 1255 882 q 949 746 949 882 l 949 0 z "},"ឥ":{"ha":882,"x_min":68,"x_max":780,"o":"m 102 475 q 441 746 102 746 q 780 475 780 746 l 780 0 l 644 0 l 644 475 q 441 610 644 610 q 237 475 237 610 l 237 271 q 266 165 237 201 q 298 145 281 145 q 323 159 311 145 q 335 189 335 170 q 306 275 335 221 l 266 341 l 370 414 l 416 357 q 475 176 475 296 q 414 56 475 115 q 298 0 357 0 q 166 70 231 0 q 102 271 102 140 l 102 475 m 197 786 q 68 882 161 850 l 68 1017 l 254 1017 q 509 983 368 983 q 644 1051 644 983 l 644 1085 l 780 1085 l 780 1051 q 509 848 780 848 q 290 867 395 848 q 315 819 304 845 l 197 786 z "},"ឦ":{"ha":1221,"x_min":102,"x_max":1119,"o":"m 237 271 q 266 165 237 201 q 298 145 281 145 q 323 159 311 145 q 335 189 335 170 q 306 275 335 221 l 266 341 l 370 414 l 416 357 q 475 176 475 296 q 414 56 475 115 q 298 0 357 0 q 166 70 231 0 q 102 271 102 140 l 102 746 q 441 1017 102 1017 q 780 746 780 1017 l 780 0 l 644 0 l 644 746 q 441 882 644 882 q 237 746 237 882 l 237 271 m 1119 -271 q 916 -475 1119 -475 l 610 -475 l 610 -271 q 441 -170 610 -170 q 271 -271 271 -170 l 271 -339 l 373 -339 l 373 -475 l 136 -475 l 136 -271 q 441 -68 136 -68 q 746 -271 746 -68 l 746 -339 l 916 -339 q 983 -271 983 -339 l 983 1085 q 882 1221 983 1221 q 780 1153 780 1221 l 644 1153 l 644 1594 l 780 1594 l 781 1344 q 882 1356 824 1356 q 1119 1085 1119 1356 l 1119 -271 z "},"ឧ":{"ha":882,"x_min":102,"x_max":780,"o":"m 644 153 q 305 0 522 52 q 102 271 102 0 l 102 453 l 271 494 q 644 746 644 585 q 441 882 644 882 q 237 746 237 882 l 305 746 l 305 610 l 203 610 q 102 712 102 610 l 102 746 q 441 1017 102 1017 q 780 746 780 1017 q 305 363 780 479 l 237 347 l 237 271 q 305 136 237 136 q 644 346 590 231 l 644 407 l 780 407 l 780 -34 l 644 -34 l 644 153 z "},"ឨ":{"ha":882,"x_min":102,"x_max":780,"o":"m 102 1153 l 102 1289 l 780 1289 l 780 1153 l 102 1153 m 644 153 q 305 0 522 52 q 102 271 102 0 l 102 453 l 271 494 q 644 746 644 585 q 441 882 644 882 q 237 746 237 882 l 305 746 l 305 610 l 203 610 q 102 712 102 610 l 102 746 q 441 1017 102 1017 q 780 746 780 1017 q 305 363 780 479 l 237 347 l 237 271 q 305 136 237 136 q 644 346 590 231 l 644 407 l 780 407 l 780 -34 l 644 -34 l 644 153 z "},"ឩ":{"ha":882,"x_min":102,"x_max":997,"o":"m 861 407 l 997 407 l 997 -34 l 861 -34 l 861 407 m 644 153 q 305 0 522 52 q 102 271 102 0 l 102 453 l 271 494 q 644 746 644 585 q 441 882 644 882 q 237 746 237 882 l 305 746 l 305 610 l 203 610 q 102 712 102 610 l 102 746 q 441 1017 102 1017 q 780 746 780 1017 q 305 363 780 479 l 237 347 l 237 271 q 305 136 237 136 q 644 346 590 231 l 644 407 l 780 407 l 780 -34 l 644 -34 l 644 153 z "},"ឪ":{"ha":882,"x_min":68,"x_max":780,"o":"m 644 153 q 305 0 522 52 q 102 271 102 0 l 102 453 l 271 494 q 644 746 644 585 q 441 882 644 882 q 237 746 237 882 l 305 746 l 305 610 l 203 610 q 102 712 102 610 l 102 746 q 441 1017 102 1017 q 780 746 780 1017 q 305 363 780 479 l 237 347 l 237 271 q 305 136 237 136 q 644 346 590 231 l 644 407 l 780 407 l 780 -34 l 644 -34 l 644 153 m 197 1057 q 68 1153 161 1122 l 68 1289 l 254 1289 q 509 1255 368 1255 q 644 1322 644 1255 l 644 1356 l 780 1356 l 780 1322 q 509 1119 780 1119 q 290 1139 395 1119 q 315 1090 304 1116 l 197 1057 z "},"ឫ":{"ha":882,"x_min":68,"x_max":780,"o":"m 102 -339 l 305 -339 q 644 -203 644 -339 l 441 -203 l 441 -68 l 780 -68 l 780 -203 q 305 -475 780 -475 l 102 -475 l 102 -339 m 237 271 q 441 136 237 136 q 644 271 644 136 l 644 1017 l 780 1017 l 780 271 q 441 0 780 0 q 102 271 102 0 l 102 515 q 158 665 102 595 q 68 831 68 707 q 244 1017 68 1017 q 339 1004 292 1017 l 339 868 q 244 882 305 882 q 203 831 203 882 q 271 766 203 780 l 339 753 l 339 671 q 237 515 237 610 l 237 271 z "},"ឬ":{"ha":882,"x_min":68,"x_max":882,"o":"m 757 -309 q 814 -339 787 -339 l 882 -339 l 882 -475 l 814 -475 q 659 -408 727 -475 q 305 -475 540 -475 l 102 -475 l 102 -339 l 305 -339 q 644 -203 644 -339 l 441 -203 l 441 -68 l 780 -68 l 780 -203 q 757 -309 780 -263 m 237 271 q 441 136 237 136 q 644 271 644 136 l 644 1017 l 780 1017 l 780 271 q 441 0 780 0 q 102 271 102 0 l 102 515 q 158 665 102 595 q 68 831 68 707 q 244 1017 68 1017 q 339 1004 292 1017 l 339 868 q 244 882 305 882 q 203 831 203 882 q 271 766 203 780 l 339 753 l 339 671 q 237 515 237 610 l 237 271 z "},"ឭ":{"ha":882,"x_min":102,"x_max":780,"o":"m 102 -339 l 305 -339 q 644 -203 644 -339 l 441 -203 l 441 -68 l 780 -68 l 780 -203 q 305 -475 780 -475 l 102 -475 l 102 -339 m 780 0 l 644 0 l 644 866 l 503 729 l 379 729 l 237 866 l 237 746 q 407 665 237 671 l 407 529 l 399 529 q 237 271 237 529 q 266 165 237 201 q 298 145 281 145 q 323 159 311 145 q 335 189 335 170 q 306 275 335 221 l 266 341 l 370 414 l 416 357 q 475 176 475 296 q 414 56 475 115 q 298 0 357 0 q 166 70 231 0 q 102 271 102 140 q 195 576 102 497 q 102 746 102 622 l 102 1017 l 276 1017 l 441 858 l 606 1017 l 780 1017 l 780 0 z "},"ឮ":{"ha":882,"x_min":102,"x_max":882,"o":"m 757 -309 q 814 -339 787 -339 l 882 -339 l 882 -475 l 814 -475 q 659 -408 727 -475 q 305 -475 540 -475 l 102 -475 l 102 -339 l 305 -339 q 644 -203 644 -339 l 441 -203 l 441 -68 l 780 -68 l 780 -203 q 757 -309 780 -263 m 780 0 l 644 0 l 644 866 l 503 729 l 379 729 l 237 866 l 237 746 q 407 665 237 671 l 407 529 l 399 529 q 237 271 237 529 q 266 165 237 201 q 298 145 281 145 q 323 159 311 145 q 335 189 335 170 q 306 275 335 221 l 266 341 l 370 414 l 416 357 q 475 176 475 296 q 414 56 475 115 q 298 0 357 0 q 166 70 231 0 q 102 271 102 140 q 195 576 102 497 q 102 746 102 622 l 102 1017 l 276 1017 l 441 858 l 606 1017 l 780 1017 l 780 0 z "},"ឯ":{"ha":882,"x_min":68,"x_max":780,"o":"m 780 0 l 644 0 l 441 210 l 237 0 l 102 0 l 102 543 l 68 543 l 68 678 l 237 678 l 237 195 l 441 404 l 644 195 l 644 746 q 441 882 644 882 q 237 780 237 882 l 102 780 l 102 1255 l 237 1255 l 237 985 q 441 1017 316 1017 q 780 746 780 1017 l 780 0 z "},"ឰ":{"ha":882,"x_min":102,"x_max":780,"o":"m 431 -225 q 236 -274 345 -254 q 293 -346 236 -346 q 431 -225 379 -346 m 442 -219 q 605 -339 513 -339 q 644 -271 644 -339 l 644 -138 q 442 -219 499 -203 m 780 -34 l 780 -271 q 605 -475 780 -475 q 452 -393 524 -475 q 294 -475 392 -475 q 102 -271 102 -475 l 102 -203 q 644 -34 375 -183 l 780 -34 m 780 0 l 644 0 l 644 866 l 503 729 l 379 729 l 237 866 l 237 746 q 407 665 237 671 l 407 529 l 399 529 q 237 271 237 529 q 266 165 237 201 q 298 145 281 145 q 323 159 311 145 q 335 189 335 170 q 306 275 335 221 l 266 341 l 370 414 l 416 357 q 475 176 475 296 q 414 56 475 115 q 298 0 357 0 q 166 70 231 0 q 102 271 102 140 q 195 576 102 497 q 102 746 102 622 l 102 1017 l 276 1017 l 441 858 l 606 1017 l 780 1017 l 780 0 z "},"ឱ":{"ha":882,"x_min":68,"x_max":780,"o":"m 644 153 q 305 0 522 52 q 102 271 102 0 l 102 453 l 271 494 q 644 746 644 585 q 441 882 644 882 q 237 746 237 882 l 305 746 l 305 610 l 203 610 q 102 712 102 610 l 102 746 q 441 1017 102 1017 q 780 746 780 1017 q 305 363 780 479 l 237 347 l 237 271 q 305 136 237 136 q 644 346 590 231 l 644 407 l 780 407 l 780 -34 l 644 -34 l 644 153 m 441 1187 q 283 1152 328 1187 q 315 1070 304 1096 l 197 1037 q 68 1119 161 1101 l 68 1255 q 245 1307 162 1291 q 441 1322 328 1322 q 780 1085 780 1322 l 644 1085 q 441 1187 644 1187 z "},"ឲ":{"ha":882,"x_min":102,"x_max":780,"o":"m 102 746 q 441 1017 102 1017 q 780 814 780 1017 l 644 814 q 441 882 644 882 q 237 746 237 882 l 237 271 q 441 136 237 136 q 644 271 644 136 l 644 312 q 475 373 644 373 l 475 475 l 602 517 q 644 571 644 531 q 543 610 644 610 l 475 610 l 475 746 l 543 746 q 780 571 780 746 q 678 427 780 452 q 780 312 780 393 l 780 271 q 441 0 780 0 q 102 271 102 0 l 102 746 z "},"ឳ":{"ha":882,"x_min":68,"x_max":890,"o":"m 644 153 q 305 0 522 52 q 102 271 102 0 l 102 453 l 271 494 q 644 746 644 585 q 441 882 644 882 q 237 746 237 882 l 305 746 l 305 610 l 203 610 q 102 712 102 610 l 102 746 q 441 1017 102 1017 q 780 746 780 1017 q 305 363 780 479 l 237 347 l 237 271 q 305 136 237 136 q 644 346 590 231 l 644 407 l 780 407 l 780 -34 l 644 -34 l 644 153 m 635 1294 q 819 1474 677 1387 l 890 1358 q 753 1200 755 1276 q 780 1085 780 1152 l 644 1085 q 441 1187 644 1187 q 283 1152 328 1187 q 315 1070 304 1096 l 197 1037 q 68 1119 161 1101 l 68 1255 q 245 1307 162 1291 q 441 1322 328 1322 q 635 1294 558 1322 z "},"ា":{"ha":339,"x_min":-102,"x_max":237,"o":"m 102 0 l 102 746 q 0 882 102 882 l -102 882 l -102 1017 l 0 1017 q 237 746 237 1017 l 237 0 l 102 0 z "},"ិ":{"ha":0,"x_min":-712,"x_max":-102,"o":"m -712 1255 q -651 1373 -712 1322 q -468 1424 -590 1424 q -271 1373 -367 1424 q -102 1255 -176 1322 l -102 1153 l -610 1153 q -712 1255 -712 1153 m -478 1322 q -553 1305 -529 1322 q -576 1255 -576 1289 l -259 1255 q -368 1305 -308 1289 q -478 1322 -427 1322 z "},"ី":{"ha":0,"x_min":-712,"x_max":-102,"o":"m -553 1305 q -576 1255 -576 1289 l -259 1255 q -368 1305 -308 1289 q -478 1322 -427 1322 q -553 1305 -529 1322 m -224 1346 l -224 1458 l -102 1458 l -102 1153 l -610 1153 q -712 1255 -712 1153 q -651 1373 -712 1322 q -468 1424 -590 1424 q -271 1373 -367 1424 q -224 1346 -247 1360 z "},"ឹ":{"ha":0,"x_min":-712,"x_max":-68,"o":"m -553 1305 q -576 1255 -576 1289 l -259 1255 q -368 1305 -308 1289 q -478 1322 -427 1322 q -553 1305 -529 1322 m -260 1368 q -160 1303 -207 1338 q -148 1339 -148 1316 q -163 1377 -148 1364 q -208 1390 -178 1390 q -260 1368 -248 1390 m -334 1401 q -208 1457 -304 1457 q -103 1428 -138 1457 q -68 1339 -68 1398 q -101 1250 -68 1280 l -102 1153 l -610 1153 q -712 1255 -712 1153 q -651 1373 -712 1322 q -468 1424 -590 1424 q -334 1401 -400 1424 z "},"ឺ":{"ha":0,"x_min":-712,"x_max":-102,"o":"m -553 1305 q -576 1255 -576 1289 l -259 1255 q -368 1305 -308 1289 q -478 1322 -427 1322 q -553 1305 -529 1322 m -345 1405 l -346 1492 l -264 1492 l -264 1370 q -183 1319 -221 1346 l -183 1458 l -102 1458 l -102 1153 l -610 1153 q -712 1255 -712 1153 q -651 1373 -712 1322 q -468 1424 -590 1424 q -345 1405 -406 1424 z "},"ុ":{"ha":0,"x_min":-237,"x_max":-102,"o":"m -102 -68 l -102 -475 l -237 -475 l -237 -68 l -102 -68 z "},"ូ":{"ha":0,"x_min":-509,"x_max":-102,"o":"m -509 -68 l -373 -68 l -373 -305 q -305 -373 -373 -373 q -237 -305 -237 -373 l -237 -68 l -102 -68 l -102 -305 q -305 -475 -102 -475 q -509 -305 -509 -475 l -509 -68 z "},"ួ":{"ha":0,"x_min":-543,"x_max":-102,"o":"m -543 -68 l -407 -68 l -407 -346 l -322 -258 l -237 -346 l -237 -68 l -102 -68 l -102 -475 l -237 -475 l -322 -387 l -407 -475 l -543 -475 l -543 -68 z "},"ើ":{"ha":0,"x_min":-712,"x_max":-102,"o":"m -553 1305 q -576 1255 -576 1289 l -259 1255 q -368 1305 -308 1289 q -478 1322 -427 1322 q -553 1305 -529 1322 m -224 1346 l -224 1458 l -102 1458 l -102 1153 l -610 1153 q -712 1255 -712 1153 q -651 1373 -712 1322 q -468 1424 -590 1424 q -271 1373 -367 1424 q -224 1346 -247 1360 z "},"ឿ":{"ha":339,"x_min":-475,"x_max":237,"o":"m -315 1339 q -339 1289 -339 1322 l -22 1289 q -130 1339 -71 1322 q -241 1356 -190 1356 q -315 1339 -292 1356 m 136 1290 q 237 1051 237 1229 l 237 -271 q -17 -475 237 -475 q -271 -271 -271 -475 l -271 -68 l -102 -68 l -102 -203 l -136 -203 l -136 -271 q -17 -339 -136 -339 q 102 -271 102 -339 l 102 1051 q 0 1187 102 1187 l -373 1187 q -475 1289 -475 1187 q -414 1407 -475 1356 q -231 1458 -353 1458 q -108 1439 -168 1458 l -109 1492 l -27 1492 l -26 1404 q 54 1353 16 1380 l 54 1492 l 136 1492 l 136 1290 z "},"ៀ":{"ha":339,"x_min":-271,"x_max":237,"o":"m -237 1594 l -102 1594 l -102 1344 q 0 1356 -58 1356 q 237 1085 237 1356 l 237 -271 q -17 -475 237 -475 q -271 -271 -271 -475 l -271 -68 l -102 -68 l -102 -203 l -136 -203 l -136 -271 q -17 -339 -136 -339 q 102 -271 102 -339 l 102 1085 q 0 1221 102 1221 q -102 1153 -102 1221 l -237 1153 l -237 1594 z "},"េ":{"ha":509,"x_min":102,"x_max":475,"o":"m 102 746 q 441 1017 102 1017 l 441 882 q 237 746 237 882 l 237 271 q 266 165 237 201 q 298 145 281 145 q 323 159 311 145 q 335 189 335 170 q 306 275 335 221 l 266 341 l 370 414 l 416 357 q 475 176 475 296 q 414 56 475 115 q 298 0 357 0 q 166 70 231 0 q 102 271 102 140 l 102 746 z "},"ែ":{"ha":509,"x_min":102,"x_max":475,"o":"m 102 1390 l 237 1390 l 237 1221 q 339 1390 339 1221 l 475 1390 q 237 1085 475 1085 l 102 1085 l 102 1390 m 102 746 q 441 1017 102 1017 l 441 882 q 237 746 237 882 l 237 271 q 266 165 237 201 q 298 145 281 145 q 323 159 311 145 q 335 189 335 170 q 306 275 335 221 l 266 341 l 370 414 l 416 357 q 475 176 475 296 q 414 56 475 115 q 298 0 357 0 q 166 70 231 0 q 102 271 102 140 l 102 746 z "},"ៃ":{"ha":509,"x_min":68,"x_max":475,"o":"m 305 1187 l 305 1238 q 271 1289 305 1289 l 237 1289 l 237 1255 l 102 1255 l 102 1390 q 68 1424 102 1424 l 68 1526 q 237 1424 237 1526 l 237 1390 l 271 1390 q 441 1238 441 1390 l 441 1085 l 102 1085 l 102 1187 l 305 1187 m 102 746 q 441 1017 102 1017 l 441 882 q 237 746 237 882 l 237 271 q 266 165 237 201 q 298 145 281 145 q 323 159 311 145 q 335 189 335 170 q 306 275 335 221 l 266 341 l 370 414 l 416 357 q 475 176 475 296 q 414 56 475 115 q 298 0 357 0 q 166 70 231 0 q 102 271 102 140 l 102 746 z "},"ោ":{"ha":339,"x_min":-102,"x_max":237,"o":"m 102 0 l 102 746 q 0 882 102 882 l -102 882 l -102 1017 l 0 1017 q 237 746 237 1017 l 237 0 l 102 0 z "},"ៅ":{"ha":339,"x_min":-102,"x_max":237,"o":"m 102 0 l 102 746 q 0 882 102 882 l -102 882 l -102 1017 l 0 1017 q 237 746 237 1017 l 237 0 l 102 0 m 102 1017 l 102 1289 q 68 1356 102 1356 l 0 1356 l 0 1492 l 68 1492 q 237 1289 237 1492 l 237 1017 l 102 1017 z "},"ំ":{"ha":0,"x_min":-644,"x_max":-237,"o":"m -441 1424 q -474 1415 -458 1424 q -499 1390 -490 1407 q -509 1356 -509 1374 q -499 1322 -509 1339 q -474 1297 -490 1306 q -441 1289 -458 1289 q -407 1297 -423 1289 q -382 1322 -391 1306 q -373 1356 -373 1339 q -382 1390 -373 1374 q -407 1415 -391 1407 q -441 1424 -423 1424 m -441 1560 q -341 1534 -389 1560 q -265 1458 -292 1508 q -237 1356 -237 1409 q -264 1255 -237 1303 q -339 1180 -291 1206 q -441 1153 -388 1153 q -542 1180 -493 1153 q -617 1255 -590 1206 q -644 1356 -644 1303 q -617 1458 -644 1409 q -541 1534 -589 1508 q -441 1560 -492 1560 z "},"ះ":{"ha":610,"x_min":102,"x_max":509,"o":"m 305 271 q 272 262 288 271 q 247 237 256 254 q 237 203 237 221 q 246 170 237 186 q 271 144 255 153 q 305 136 288 136 q 339 144 323 136 q 364 170 355 153 q 373 203 373 186 q 364 237 373 221 q 338 262 355 254 q 305 271 322 271 m 305 407 q 405 381 356 407 q 481 306 454 355 q 509 203 509 256 q 482 102 509 151 q 407 27 455 54 q 305 0 358 0 q 204 27 252 0 q 129 102 155 54 q 102 203 102 151 q 129 306 102 256 q 205 381 157 355 q 305 407 254 407 m 305 882 q 272 873 288 882 q 247 848 256 864 q 237 814 237 831 q 246 780 237 796 q 271 755 255 764 q 305 746 288 746 q 339 755 323 746 q 364 780 355 764 q 373 814 373 796 q 364 848 373 831 q 338 873 355 864 q 305 882 322 882 m 305 1017 q 405 991 356 1017 q 481 916 454 965 q 509 814 509 867 q 482 712 509 761 q 407 637 455 664 q 305 610 358 610 q 204 637 252 610 q 129 712 155 664 q 102 814 102 761 q 129 916 102 867 q 205 991 157 965 q 305 1017 254 1017 z "},"ៈ":{"ha":407,"x_min":102,"x_max":305,"o":"m 203 305 q 253 292 229 305 q 291 254 277 279 q 305 203 305 230 q 292 153 305 177 q 254 115 278 129 q 203 102 230 102 q 153 115 177 102 q 115 153 129 129 q 102 203 102 177 q 115 254 102 230 q 153 292 129 279 q 203 305 178 305 m 203 916 q 253 902 229 916 q 291 865 277 889 q 305 814 305 840 q 292 763 305 787 q 254 726 278 739 q 203 712 230 712 q 153 726 177 712 q 115 763 129 739 q 102 814 102 787 q 115 865 102 840 q 153 902 129 889 q 203 916 178 916 z "},"៉":{"ha":0,"x_min":-614,"x_max":-268,"o":"m -614 1153 l -614 1560 l -505 1560 l -505 1153 l -614 1153 m -376 1153 l -376 1560 l -268 1560 l -268 1153 l -376 1153 z "},"៊":{"ha":0,"x_min":-780,"x_max":-102,"o":"m -780 1153 l -780 1289 l -493 1289 l -441 1255 l -388 1289 l -102 1289 l -102 1153 l -780 1153 z "},"់":{"ha":0,"x_min":-509,"x_max":-373,"o":"m -509 1153 l -509 1560 l -373 1560 l -373 1153 l -509 1153 z "},"៌":{"ha":0,"x_min":-702,"x_max":-180,"o":"m -626 1160 l -702 1267 q -528 1421 -597 1335 q -438 1583 -459 1507 l -336 1552 q -384 1425 -366 1457 q -437 1352 -403 1392 q -403 1355 -420 1355 q -320 1343 -365 1355 q -180 1247 -255 1326 l -278 1153 q -418 1244 -333 1234 q -470 1248 -447 1248 q -543 1234 -517 1248 q -626 1160 -581 1212 z "},"៍":{"ha":0,"x_min":-746,"x_max":-136,"o":"m -610 1258 q -561 1227 -610 1227 l -511 1227 l -511 1153 l -561 1153 q -746 1258 -746 1153 q -543 1390 -746 1390 l -373 1390 q -271 1492 -271 1390 l -136 1492 l -136 1458 q -373 1289 -136 1289 l -543 1289 q -610 1258 -610 1289 z "},"៎":{"ha":0,"x_min":-644,"x_max":-237,"o":"m -373 1424 l -237 1424 l -237 1289 l -373 1289 l -373 1153 l -509 1153 l -509 1289 l -644 1289 l -644 1424 l -509 1424 l -509 1560 l -373 1560 l -373 1424 z "},"៏":{"ha":0,"x_min":-746,"x_max":-136,"o":"m -746 1438 l -452 1438 q -273 1506 -273 1438 l -136 1506 l -136 1478 q -250 1356 -136 1356 l -608 1356 l -608 1248 l -441 1306 l -273 1247 l -273 1302 l -136 1302 l -136 1153 l -273 1153 l -441 1212 l -607 1153 l -608 1154 l -608 1153 l -746 1153 l -746 1438 z "},"័":{"ha":0,"x_min":-610,"x_max":0,"o":"m -610 1289 q -407 1417 -610 1417 l -373 1417 l -373 1322 l -409 1322 q -475 1289 -475 1322 q -312 1255 -475 1255 q -136 1424 -136 1255 l 0 1424 q -312 1153 0 1153 q -610 1289 -610 1153 z "},"៑":{"ha":0,"x_min":-780,"x_max":-102,"o":"m -780 1153 l -780 1289 l -102 1289 l -102 1153 l -780 1153 z "},"្":{"ha":0,"x_min":-644,"x_max":-237,"o":"m -373 -203 l -237 -203 l -237 -339 l -373 -339 l -373 -475 l -509 -475 l -509 -339 l -644 -339 l -644 -203 l -509 -203 l -509 -68 l -373 -68 l -373 -203 z "},"៓":{"ha":0,"x_min":-746,"x_max":-136,"o":"m -440 1470 q -479 1459 -460 1470 q -509 1430 -498 1449 q -519 1390 -519 1411 q -509 1351 -519 1370 q -479 1321 -498 1332 q -440 1311 -460 1311 q -400 1321 -419 1311 q -371 1351 -381 1332 q -361 1390 -361 1370 q -372 1430 -361 1411 q -401 1459 -382 1449 q -440 1470 -419 1470 m -441 1628 q -290 1597 -363 1628 q -177 1509 -218 1567 q -136 1390 -136 1452 q -175 1272 -136 1329 q -288 1184 -215 1215 q -441 1153 -361 1153 q -591 1184 -519 1153 q -705 1272 -664 1215 q -746 1390 -746 1329 q -705 1509 -746 1452 q -590 1597 -663 1567 q -441 1628 -517 1628 z "},"។":{"ha":780,"x_min":102,"x_max":678,"o":"m 102 1017 l 237 1017 l 237 882 q 543 1017 395 882 l 678 1017 l 678 0 l 543 0 l 543 845 q 237 746 436 746 l 102 746 l 102 1017 z "},"៕":{"ha":1017,"x_min":102,"x_max":916,"o":"m 780 1017 l 916 1017 l 916 0 l 780 0 l 780 1017 m 102 1017 l 237 1017 l 237 882 q 543 1017 395 882 l 678 1017 l 678 0 l 543 0 l 543 845 q 237 746 436 746 l 102 746 l 102 1017 z "},"៖":{"ha":610,"x_min":34,"x_max":576,"o":"m 305 271 q 272 262 288 271 q 247 237 256 254 q 237 203 237 221 q 246 170 237 186 q 271 144 255 153 q 305 136 288 136 q 339 144 323 136 q 364 170 355 153 q 373 203 373 186 q 364 237 373 221 q 338 262 355 254 q 305 271 322 271 m 305 407 q 405 381 356 407 q 481 306 454 355 q 509 203 509 256 q 482 102 509 151 q 407 27 455 54 q 305 0 358 0 q 204 27 252 0 q 129 102 155 54 q 102 203 102 151 q 129 306 102 256 q 205 381 157 355 q 305 407 254 407 m 305 882 q 272 873 288 882 q 247 848 256 864 q 237 814 237 831 q 246 780 237 796 q 271 755 255 764 q 305 746 288 746 q 339 755 323 746 q 364 780 355 764 q 373 814 373 796 q 364 848 373 831 q 338 873 355 864 q 305 882 322 882 m 305 1017 q 405 991 356 1017 q 481 916 454 965 q 509 814 509 867 q 482 712 509 761 q 407 637 455 664 q 305 610 358 610 q 204 637 252 610 q 129 712 155 664 q 102 814 102 761 q 129 916 102 867 q 205 991 157 965 q 305 1017 254 1017 m 34 475 l 34 543 l 576 543 l 576 475 l 34 475 z "},"ៗ":{"ha":882,"x_min":102,"x_max":780,"o":"m 102 1017 l 237 1017 l 441 888 l 644 1017 l 780 1017 l 780 0 l 644 0 l 644 875 l 441 746 l 237 875 l 237 746 l 102 746 l 102 1017 z "},"៘":{"ha":2933,"x_min":102,"x_max":2831,"o":"m 102 1017 l 237 1017 l 237 882 q 543 1017 395 882 l 678 1017 l 678 0 l 543 0 l 543 845 q 237 746 436 746 l 102 746 l 102 1017 m 1560 271 q 1738 136 1560 136 q 1916 271 1916 136 l 1916 1017 l 2051 1017 l 2051 271 q 1738 0 2051 0 q 1424 271 1424 0 l 1424 746 q 1221 882 1424 882 q 1017 746 1017 882 q 1214 699 1017 699 l 1214 563 q 1017 271 1017 563 q 1046 165 1017 201 q 1078 145 1061 145 q 1103 159 1090 145 q 1115 189 1115 170 q 1086 275 1115 221 l 1046 341 l 1150 414 l 1196 357 q 1255 176 1255 296 q 1194 56 1255 115 q 1078 0 1137 0 q 946 70 1011 0 q 882 271 882 140 q 975 604 882 497 q 882 746 882 649 q 1221 1017 882 1017 q 1560 746 1560 1017 l 1560 271 m 2255 1017 l 2391 1017 l 2391 882 q 2696 1017 2549 882 l 2831 1017 l 2831 0 l 2696 0 l 2696 845 q 2391 746 2589 746 l 2255 746 l 2255 1017 z "},"៙":{"ha":949,"x_min":102,"x_max":848,"o":"m 475 0 q 102 509 102 0 q 475 1017 102 1017 q 848 509 848 1017 q 475 0 848 0 m 475 932 q 195 509 195 932 q 475 85 195 85 q 755 509 755 85 q 475 932 755 932 m 475 170 q 288 509 288 170 q 475 848 288 848 q 661 509 661 848 q 475 170 661 170 m 475 763 q 382 509 382 763 q 475 254 382 254 q 568 509 568 254 q 475 763 568 763 z "},"៚":{"ha":1899,"x_min":102,"x_max":1797,"o":"m 356 1017 q 613 739 613 1017 q 401 555 613 555 q 358 601 358 555 q 401 647 358 647 q 526 740 526 647 q 358 925 526 925 q 186 740 186 925 l 186 277 q 358 90 186 90 q 528 192 443 90 q 698 507 613 294 l 865 922 l 950 922 l 1162 248 l 1289 829 l 1373 829 l 1501 346 l 1586 553 l 1756 553 q 1797 507 1797 553 q 1756 460 1797 460 l 1628 460 l 1544 185 l 1458 185 l 1331 647 l 1204 92 l 1120 92 l 907 808 l 766 460 q 356 0 578 0 q 102 277 102 0 l 102 740 q 356 1017 102 1017 z "},"៛":{"ha":543,"x_min":34,"x_max":509,"o":"m 264 475 l 68 475 l 68 610 l 245 610 q 41 882 195 882 l 34 882 l 34 1017 l 441 1017 l 441 882 l 295 882 q 385 610 357 789 l 509 610 l 509 475 l 400 475 q 407 271 407 382 q 342 70 407 140 q 211 0 277 0 q 95 56 152 0 q 34 176 34 115 q 93 357 34 296 l 138 414 l 243 341 l 203 275 q 174 189 174 221 q 185 159 174 170 q 211 145 198 145 q 243 165 227 145 q 271 271 271 201 q 264 475 271 383 z "},"០":{"ha":882,"x_min":102,"x_max":780,"o":"m 237 322 q 441 136 237 136 q 644 322 644 136 l 644 695 q 441 882 644 882 q 237 695 237 882 l 237 322 m 102 695 q 441 1017 102 1017 q 780 695 780 1017 l 780 322 q 441 0 780 0 q 102 322 102 0 l 102 695 z "},"១":{"ha":882,"x_min":102,"x_max":780,"o":"m 644 271 l 644 746 q 441 882 644 882 q 237 746 237 882 l 237 644 q 339 576 237 576 l 441 576 l 441 441 l 339 441 q 102 644 102 441 l 102 746 q 441 1017 102 1017 q 780 746 780 1017 l 780 271 q 441 0 780 0 q 102 271 102 0 l 237 271 q 441 136 237 136 q 644 271 644 136 z "},"២":{"ha":1051,"x_min":34,"x_max":949,"o":"m 949 271 q 526 0 949 0 q 102 271 102 0 l 102 1051 l 34 1051 l 34 1187 l 102 1187 q 237 1085 237 1187 l 237 271 q 526 136 237 136 q 814 271 814 136 l 814 869 l 644 751 l 481 869 l 481 644 l 515 644 l 515 509 l 339 509 l 339 1017 l 481 1017 l 644 899 l 814 1017 l 949 1017 l 949 271 z "},"៣":{"ha":1153,"x_min":102,"x_max":1051,"o":"m 644 0 l 509 0 l 509 773 q 373 882 509 882 q 237 773 237 882 l 237 136 l 305 136 l 305 0 l 102 0 l 102 780 q 373 1017 102 1017 q 576 957 508 1017 q 780 1017 644 1017 q 1051 773 1051 1017 l 1051 0 l 916 0 l 916 773 q 780 882 916 882 q 644 773 644 882 l 644 0 z "},"៤":{"ha":882,"x_min":34,"x_max":780,"o":"m 237 271 q 407 136 237 136 l 597 136 l 475 304 l 475 543 q 509 636 475 593 q 610 678 543 678 l 780 678 l 780 543 l 610 543 l 610 338 l 780 136 l 746 0 l 407 0 q 102 271 102 0 l 102 1051 l 34 1051 l 34 1187 l 102 1187 q 237 1085 237 1187 l 237 271 z "},"៥":{"ha":882,"x_min":102,"x_max":780,"o":"m 604 136 l 475 304 l 475 509 q 509 602 475 559 q 610 644 543 644 l 780 644 l 780 509 l 610 509 l 610 324 l 780 136 l 746 0 l 407 0 q 102 271 102 0 l 102 746 l 216 818 q 178 832 197 823 q 122 882 142 850 q 102 949 102 914 l 102 1085 l 237 1085 l 237 916 l 644 916 l 644 1153 l 780 1153 l 780 916 q 644 780 780 780 l 237 780 l 237 271 q 407 136 237 136 l 604 136 z "},"៦":{"ha":882,"x_min":102,"x_max":780,"o":"m 102 1255 l 237 1255 l 237 981 q 441 1017 316 1017 q 780 746 780 1017 l 780 271 q 441 0 780 0 q 102 271 102 0 l 102 373 q 339 576 102 576 l 441 576 l 441 441 l 339 441 q 237 373 237 441 l 237 271 q 441 136 237 136 q 644 271 644 136 l 644 746 q 441 882 644 882 q 237 746 237 882 l 102 746 l 102 1255 z "},"៧":{"ha":1119,"x_min":102,"x_max":1017,"o":"m 780 136 l 882 136 l 882 1221 l 1017 1221 l 1017 136 q 831 0 1017 0 q 644 136 644 0 l 644 866 l 441 720 l 237 866 l 237 136 l 339 136 l 339 0 l 102 0 l 102 1017 l 237 1017 l 441 871 l 644 1017 l 780 1017 l 780 136 z "},"៨":{"ha":882,"x_min":102,"x_max":780,"o":"m 644 373 q 597 441 644 441 l 495 441 l 495 576 l 597 576 q 780 373 780 576 l 780 0 l 644 0 l 441 160 l 237 0 l 102 0 l 102 746 q 441 1017 102 1017 q 644 981 566 1017 l 644 1255 l 780 1255 l 780 746 l 644 746 q 441 882 644 882 q 237 746 237 882 l 237 138 l 441 298 l 644 138 l 644 373 z "},"៩":{"ha":882,"x_min":102,"x_max":780,"o":"m 644 989 l 644 1255 l 780 1255 l 780 814 l 644 814 q 441 882 644 882 q 237 773 237 882 q 441 678 237 678 l 678 678 l 678 543 l 441 543 q 237 475 237 543 l 237 220 q 441 136 237 136 q 644 220 644 136 q 543 305 644 305 l 441 305 l 441 441 l 543 441 q 780 220 780 441 q 441 0 780 0 q 102 220 102 0 l 102 475 q 195 614 128 582 q 102 773 128 646 q 441 1017 102 1017 q 644 989 566 1017 z "},"​":{"ha":0,"x_min":0,"x_max":0,"o":""}}}
